<svg width="256" height="256" viewBox="0 0 256 256" fill="none" xmlns="http://www.w3.org/2000/svg">
  <path d="M128 6C118 48 90 72 72 98C55 123 46 146 46 176C46 219 81 250 128 250C175 250 210 219 210 176C210 134 189 105 166 75C148 52 132 32 128 6Z" stroke="#19B7A5" stroke-width="14" stroke-linecap="round" stroke-linejoin="round"/>
  <path d="M127 119C121 136 108 145 100 156C93 165 90 174 90 184C90 206 107 223 128 223C149 223 166 206 166 184C166 166 157 153 147 141C139 132 131 123 127 119Z" stroke="#19B7A5" stroke-width="14" stroke-linecap="round" stroke-linejoin="round"/>
</svg>
